<svg width="31" height="19" viewBox="0 0 31 19" fill="none" xmlns="http://www.w3.org/2000/svg">
<g clip-path="url(#clip0_41_1957)">
<path d="M1.58974 0H29.4103C30.2883 0 31 0.680542 31 1.52V17.48C31 18.3195 30.2883 19 29.4103 19H1.58974C0.711768 19 0 18.3195 0 17.48V1.52C0 0.680542 0.711768 0 1.58974 0Z" fill="#0E4595"/>
<path d="M11.6529 13.2517L12.9788 5.81284H15.0995L13.7727 13.2517H11.6529ZM21.4342 5.9732C21.0141 5.82249 20.3557 5.66077 19.5336 5.66077C17.4381 5.66077 15.962 6.66967 15.9495 8.11568C15.9376 9.18462 17.0033 9.78092 17.8076 10.1368C18.6331 10.5014 18.9106 10.7339 18.9067 11.0595C18.9015 11.5581 18.2475 11.7859 17.638 11.7859C16.7892 11.7859 16.3382 11.6732 15.6418 11.3954L15.3685 11.2772L15.0709 12.9425C15.5662 13.1502 16.4821 13.33 17.4331 13.3394C19.6624 13.3394 21.1094 12.342 21.1259 10.7978C21.1339 9.95161 20.5689 9.30763 19.3454 8.77669C18.6042 8.4326 18.1502 8.20293 18.155 7.85451C18.155 7.5453 18.5393 7.21463 19.3695 7.21463C20.063 7.20437 20.5654 7.34896 20.9568 7.49963L21.1468 7.58551L21.4342 5.9732ZM26.8914 5.81273H25.2527C24.745 5.81273 24.3651 5.94523 24.1422 6.42962L20.9928 13.2468H23.2196C23.2196 13.2468 23.5837 12.3302 23.666 12.1289C23.9095 12.1289 26.0727 12.1321 26.382 12.1321C26.4455 12.3925 26.64 13.2468 26.64 13.2468H28.6078L26.8914 5.8125V5.81273ZM24.2914 10.6163C24.4668 10.1877 25.1364 8.53684 25.1364 8.53684C25.1238 8.55667 25.3104 8.10614 25.4175 7.82684L25.5608 8.46825C25.5608 8.46825 25.967 10.2439 26.0518 10.6163H24.2914ZM9.8526 5.81273L7.77639 10.8857L7.55514 9.85479C7.16863 8.66642 5.9644 7.3789 4.61816 6.73431L6.51656 13.2399L8.76032 13.2375L12.0989 5.81265H9.8526" fill="white"/>
<path d="M5.8391 5.81241H2.41952L2.39246 5.96718C5.05281 6.58293 6.81313 8.07098 7.54402 9.85876L6.80042 6.44028C6.67204 5.96927 6.29977 5.82871 5.83918 5.81226" fill="#F2AE14"/>
</g>
<defs>
<clipPath id="clip0_41_1957">
<rect width="31" height="19" fill="white"/>
</clipPath>
</defs>
</svg>
