<svg width="31" height="24" viewBox="0 0 31 24" fill="none" xmlns="http://www.w3.org/2000/svg">
<path d="M5.75789 23.8686V22.2908C5.76704 22.1582 5.74783 22.0251 5.70155 21.9005C5.65527 21.7759 5.58298 21.6626 5.48949 21.5681C5.396 21.4736 5.28345 21.4001 5.15934 21.3525C5.03523 21.3049 4.90241 21.2843 4.76971 21.2921C4.5959 21.2807 4.42222 21.3161 4.2668 21.3948C4.11138 21.4734 3.97992 21.5923 3.88614 21.7391C3.8007 21.5968 3.67844 21.4801 3.53224 21.4014C3.38604 21.3227 3.22133 21.285 3.05545 21.2921C2.91085 21.2847 2.76683 21.3153 2.63767 21.3807C2.50852 21.4461 2.39871 21.5442 2.31914 21.6652V21.3552H1.77246V23.8686H2.32469V22.4857C2.31295 22.3997 2.32034 22.3122 2.34632 22.2295C2.3723 22.1467 2.41624 22.0707 2.475 22.0069C2.53376 21.9431 2.60588 21.8931 2.68622 21.8603C2.76656 21.8276 2.85313 21.8131 2.93975 21.8177C3.30264 21.8177 3.48672 22.0544 3.48672 22.4804V23.8791H4.03895V22.4854C4.02774 22.3995 4.0355 22.3123 4.06168 22.2298C4.08786 22.1473 4.13182 22.0715 4.19048 22.0078C4.24913 21.9442 4.32104 21.8941 4.40113 21.8613C4.48122 21.8284 4.56754 21.8136 4.65401 21.8177C5.02713 21.8177 5.20624 22.0544 5.20624 22.4804V23.8791L5.75818 23.8686H5.75789ZM13.9268 21.3552H13.0275V20.5926H12.4753V21.3552H11.9756V21.8548H12.4858V23.0113C12.4858 23.5951 12.7119 23.9422 13.3585 23.9422C13.6002 23.943 13.8372 23.8756 14.0423 23.7476L13.8845 23.2795C13.7378 23.3672 13.5713 23.416 13.4006 23.4215C13.1376 23.4215 13.038 23.2532 13.038 23.0008V21.8545H13.9318L13.9265 21.3549L13.9268 21.3552ZM18.5907 21.2921C18.319 21.2839 18.0648 21.4253 17.9283 21.6602V21.3552H17.3866V23.8686H17.9336V22.4594C17.9336 22.0439 18.1124 21.8125 18.4595 21.8125C18.5764 21.811 18.6924 21.8323 18.8014 21.8756L18.9694 21.3496C18.8445 21.305 18.7129 21.282 18.5802 21.2816L18.5907 21.2921ZM11.5397 21.555C11.2301 21.3709 10.8741 21.2797 10.5141 21.2921C9.87801 21.2921 9.46252 21.5968 9.46252 22.0965C9.46252 22.5067 9.76757 22.7591 10.3303 22.8377L10.5933 22.8746C10.8928 22.9166 11.0348 22.9955 11.0348 23.1375C11.0348 23.3321 10.8349 23.4426 10.4615 23.4426C10.1612 23.4512 9.8668 23.3586 9.62556 23.1796L9.36259 23.6056C9.68112 23.828 10.0626 23.9423 10.451 23.9317C11.1768 23.9317 11.5975 23.5898 11.5975 23.1112C11.5975 22.6329 11.2662 22.4383 10.7192 22.3594L10.4562 22.3226C10.2196 22.2911 10.0305 22.2437 10.0305 22.0754C10.0305 21.9071 10.2094 21.7809 10.5088 21.7809C10.7859 21.7841 11.0576 21.8583 11.2977 21.9965L11.5397 21.5547V21.555ZM26.1864 21.2921C25.9147 21.2839 25.6605 21.4253 25.5237 21.6602V21.3552H24.9823V23.8686H25.529V22.4594C25.529 22.0439 25.7078 21.8125 26.0549 21.8125C26.1718 21.811 26.2881 21.8323 26.3968 21.8756L26.5651 21.3496C26.4402 21.305 26.3085 21.282 26.1759 21.2816L26.1864 21.2921ZM19.14 22.6066C19.1335 22.7832 19.164 22.9593 19.2294 23.1235C19.2948 23.2877 19.3938 23.4364 19.52 23.5601C19.6463 23.6839 19.7969 23.7799 19.9624 23.8421C20.1278 23.9042 20.3044 23.9312 20.4809 23.9212C20.8092 23.9378 21.1318 23.8309 21.3852 23.6214L21.1222 23.1796C20.9332 23.3237 20.7028 23.403 20.4651 23.4057C20.2626 23.3898 20.0736 23.2982 19.9358 23.149C19.7979 22.9999 19.7213 22.8043 19.7213 22.6012C19.7213 22.3981 19.7979 22.2025 19.9358 22.0534C20.0736 21.9043 20.2626 21.8126 20.4651 21.7967C20.7029 21.7993 20.9334 21.8786 21.1225 22.0228L21.3855 21.581C21.132 21.3716 20.8093 21.2647 20.4809 21.2816C20.3044 21.2715 20.1278 21.2985 19.9624 21.3607C19.7969 21.4228 19.6463 21.5189 19.52 21.6426C19.3938 21.7663 19.2948 21.9151 19.2294 22.0792C19.164 22.2434 19.1335 22.4195 19.14 22.5961V22.6066ZM24.2615 22.6066V21.3552H23.7148V21.6599C23.6219 21.5404 23.502 21.4447 23.3648 21.3807C23.2276 21.3166 23.0772 21.2862 22.9259 21.2918C22.5772 21.2918 22.2428 21.4303 21.9963 21.6768C21.7497 21.9234 21.6112 22.2578 21.6112 22.6065C21.6112 22.9552 21.7497 23.2895 21.9963 23.5361C22.2428 23.7827 22.5772 23.9212 22.9259 23.9212C23.0772 23.9268 23.2276 23.8963 23.3648 23.8323C23.502 23.7683 23.6219 23.6725 23.7148 23.553V23.8581H24.2615V22.6066ZM22.2267 22.6066C22.2354 22.4587 22.2872 22.3166 22.3757 22.1977C22.4641 22.0789 22.5854 21.9885 22.7246 21.9377C22.8638 21.8869 23.0148 21.8779 23.159 21.9118C23.3033 21.9458 23.4344 22.0211 23.5364 22.1287C23.6383 22.2362 23.7066 22.3712 23.7328 22.517C23.759 22.6628 23.742 22.8132 23.6838 22.9494C23.6257 23.0857 23.529 23.202 23.4056 23.284C23.2822 23.366 23.1375 23.4102 22.9893 23.411C22.8852 23.4124 22.7819 23.3922 22.686 23.3517C22.5901 23.3112 22.5036 23.2513 22.432 23.1757C22.3603 23.1001 22.3051 23.0106 22.2698 22.9126C22.2345 22.8147 22.2198 22.7105 22.2267 22.6066ZM15.6277 21.2918C15.2802 21.2984 14.9495 21.4424 14.7078 21.6922C14.4661 21.942 14.3332 22.2773 14.3381 22.6248C14.343 22.9723 14.4852 23.3038 14.7338 23.5467C14.9823 23.7896 15.3169 23.9243 15.6645 23.9212C16.0427 23.9405 16.4147 23.8187 16.7082 23.5793L16.4452 23.1743C16.2377 23.3409 15.9806 23.4335 15.7144 23.4373C15.5336 23.4529 15.3538 23.3974 15.2134 23.2824C15.0729 23.1675 14.9828 23.0023 14.9624 22.822H16.8291V22.6116C16.8291 21.823 16.34 21.2973 15.6355 21.2973L15.6277 21.2921V21.2918ZM15.6277 21.7809C15.7929 21.7775 15.9528 21.8398 16.0721 21.9542C16.1913 22.0686 16.2603 22.2257 16.2638 22.391H14.9492C14.9587 22.2222 15.034 22.0638 15.1588 21.9498C15.2836 21.8357 15.4482 21.7751 15.6171 21.7809H15.6277ZM29.328 22.6119V20.3451H28.8021V21.6599C28.7092 21.5404 28.5892 21.4447 28.452 21.3807C28.3149 21.3166 28.1644 21.2862 28.0132 21.2918C27.6645 21.2918 27.3302 21.4303 27.0836 21.6768C26.8371 21.9233 26.6986 22.2577 26.6986 22.6063C26.6986 22.955 26.8371 23.2893 27.0836 23.5359C27.3302 23.7824 27.6645 23.9209 28.0132 23.9209C28.1644 23.9265 28.3149 23.896 28.452 23.832C28.5892 23.768 28.7092 23.6723 28.8021 23.5527V23.8578H29.328V22.6116V22.6119ZM30.2402 23.503C30.2744 23.5026 30.3083 23.5089 30.3401 23.5215C30.3703 23.5338 30.398 23.5516 30.4217 23.574C30.4514 23.6025 30.4735 23.6381 30.4859 23.6774C30.4982 23.7167 30.5004 23.7586 30.4923 23.799C30.4841 23.8394 30.4659 23.877 30.4393 23.9085C30.4127 23.94 30.3786 23.9643 30.3401 23.979C30.3087 23.9929 30.2746 24.0001 30.2402 24.0001C30.1904 23.9997 30.1416 23.9851 30.0997 23.9581C30.0578 23.9311 30.0245 23.8928 30.0035 23.8475C29.9904 23.8168 29.9836 23.7837 29.9836 23.7502C29.9836 23.7168 29.9904 23.6837 30.0035 23.6529C30.0169 23.6235 30.0357 23.5967 30.0588 23.574C30.0824 23.5516 30.1101 23.5338 30.1403 23.5215C30.1745 23.5078 30.2113 23.5016 30.2481 23.503H30.2402ZM30.2402 23.9472C30.2657 23.9474 30.291 23.9425 30.3145 23.9326C30.3381 23.9227 30.3593 23.908 30.377 23.8896C30.4098 23.8537 30.4281 23.8068 30.4281 23.7581C30.4281 23.7094 30.4098 23.6625 30.377 23.6266C30.35 23.5986 30.3152 23.5796 30.2771 23.572C30.239 23.5645 30.1995 23.5689 30.1639 23.5846C30.1403 23.5943 30.1189 23.6086 30.1008 23.6266C30.0679 23.6625 30.0497 23.7094 30.0497 23.7581C30.0497 23.8068 30.0679 23.8537 30.1008 23.8896C30.119 23.9074 30.1403 23.9218 30.1639 23.9317C30.1902 23.9431 30.2192 23.9483 30.2481 23.9475H30.2402V23.9472ZM30.256 23.6345C30.2805 23.6333 30.3047 23.6408 30.3244 23.6556C30.3324 23.6623 30.3386 23.6708 30.3427 23.6804C30.3468 23.69 30.3485 23.7004 30.3477 23.7108C30.3486 23.7283 30.3419 23.7456 30.3296 23.7581C30.3143 23.7719 30.2947 23.7802 30.2741 23.7815L30.3507 23.8686H30.2902L30.2192 23.7818H30.1955V23.8686H30.1455V23.6372L30.256 23.6342V23.6345ZM30.1981 23.6792V23.7423H30.256C30.2662 23.7453 30.2773 23.7453 30.2875 23.7423C30.2894 23.7387 30.2904 23.7346 30.2904 23.7305C30.2904 23.7264 30.2894 23.7224 30.2875 23.7187C30.2894 23.715 30.2904 23.711 30.2904 23.7068C30.2904 23.7027 30.2894 23.6987 30.2875 23.695C30.2772 23.6919 30.2663 23.6919 30.256 23.695L30.1981 23.6792ZM27.3061 22.6119C27.3148 22.464 27.3666 22.3218 27.455 22.203C27.5435 22.0841 27.6648 21.9937 27.804 21.9429C27.9432 21.8921 28.0942 21.8832 28.2384 21.9171C28.3826 21.951 28.5138 22.0264 28.6157 22.1339C28.7177 22.2414 28.786 22.3764 28.8122 22.5223C28.8384 22.6681 28.8213 22.8184 28.7632 22.9547C28.7051 23.091 28.6083 23.2073 28.4849 23.2893C28.3615 23.3713 28.2168 23.4154 28.0687 23.4163C27.9646 23.4176 27.8613 23.3974 27.7654 23.3569C27.6695 23.3164 27.583 23.2565 27.5113 23.181C27.4397 23.1054 27.3845 23.0158 27.3492 22.9179C27.3138 22.82 27.2992 22.7158 27.3061 22.6119ZM8.84192 22.6119V21.3552H8.29494V21.6599C8.20207 21.5404 8.08209 21.4447 7.94492 21.3807C7.80775 21.3166 7.65731 21.2862 7.50604 21.2918C7.15736 21.2918 6.82296 21.4303 6.57641 21.6768C6.32986 21.9234 6.19135 22.2578 6.19135 22.6065C6.19135 22.9552 6.32986 23.2895 6.57641 23.5361C6.82296 23.7827 7.15736 23.9212 7.50604 23.9212C7.65731 23.9268 7.80775 23.8963 7.94492 23.8323C8.08209 23.7683 8.20207 23.6725 8.29494 23.553V23.8581H8.84192V22.6119ZM6.80684 22.6119C6.81556 22.464 6.86734 22.3218 6.95581 22.203C7.04428 22.0841 7.16558 21.9937 7.30477 21.9429C7.44395 21.8921 7.59496 21.8832 7.73919 21.9171C7.88341 21.951 8.01457 22.0264 8.11651 22.1339C8.21845 22.2414 8.28672 22.3764 8.31292 22.5223C8.33912 22.6681 8.3221 22.8184 8.26396 22.9547C8.20582 23.091 8.1091 23.2073 7.9857 23.2893C7.8623 23.3713 7.71761 23.4154 7.56944 23.4163C7.4649 23.4184 7.36106 23.3987 7.26452 23.3585C7.16797 23.3184 7.08084 23.2586 7.00863 23.1829C6.93643 23.1073 6.88074 23.0175 6.8451 22.9192C6.80945 22.8209 6.79463 22.7162 6.80158 22.6119H6.80684Z" fill="white"/>
<path d="M11.3582 2.20203H19.6399V17.0854H11.3582V2.20203Z" fill="#FF5F00"/>
<path d="M11.884 9.64529C11.8825 8.21159 12.2072 6.79634 12.8336 5.50673C13.46 4.21711 14.3717 3.08695 15.4995 2.20183C11.6184 -0.847721 6.04584 -0.403597 2.69738 3.22244C-0.65108 6.84848 -0.65108 12.4389 2.69738 16.0649C6.04584 19.691 11.6184 20.1351 15.4993 17.0855C14.3718 16.2007 13.4605 15.071 12.8341 13.7819C12.2078 12.4928 11.8829 11.0782 11.884 9.645V9.64529Z" fill="#EB001B"/>
<path d="M30.8136 9.64524C30.8134 11.4211 30.3136 13.1611 29.3713 14.6664C28.4289 16.1717 27.0821 17.3815 25.4848 18.1575C23.8874 18.9335 22.1039 19.2445 20.3382 19.0549C18.5724 18.8653 16.8957 18.1827 15.4995 17.0852C16.6264 16.1996 17.5375 15.0696 18.164 13.7804C18.7904 12.4913 19.1159 11.0768 19.1159 9.64348C19.1159 8.21021 18.7904 6.79565 18.164 5.50653C17.5375 4.21742 16.6264 3.08741 15.4995 2.20178C16.8957 1.10417 18.5725 0.421522 20.3383 0.231864C22.1041 0.0422066 23.8877 0.353192 25.4851 1.12927C27.0825 1.90536 28.4294 3.11522 29.3717 4.62058C30.314 6.12594 30.8138 7.86605 30.8139 9.64202V9.64495L30.8136 9.64524ZM29.9093 15.508V15.2026H30.0329V15.1395H29.7202V15.2026H29.8541V15.5077H29.9096L29.9093 15.508ZM30.5167 15.508V15.1398H30.4221L30.3116 15.4028L30.2012 15.1398H30.117V15.508H30.1854V15.2318L30.2877 15.4711H30.359L30.4612 15.2318V15.5106L30.5167 15.5077V15.508Z" fill="#F79E1B"/>
</svg>
