<svg width="38" height="24" viewBox="0 0 38 24" fill="none" xmlns="http://www.w3.org/2000/svg">
<g clip-path="url(#clip0_41_1972)">
<path d="M35.3205 0H2.67949C1.20202 0 0 1.1843 0 2.64V21.408C0 22.8637 1.20202 24.048 2.67949 24.048H35.3205C36.7979 24.048 38 22.8637 38 21.408V2.64C38 1.1843 36.7979 0 35.3205 0Z" fill="white"/>
<path d="M8.20321 8.15276C7.79403 7.87561 7.26008 7.73669 6.60137 7.73669H4.05118C3.84924 7.73669 3.73768 7.8362 3.71649 8.03497L2.6805 14.442C2.66973 14.5049 2.68571 14.5625 2.72829 14.6148C2.77063 14.6673 2.82387 14.6933 2.88765 14.6933H4.09897C4.31143 14.6933 4.42821 14.5941 4.44964 14.395L4.73649 12.6677C4.74697 12.584 4.78433 12.5159 4.84811 12.4635C4.91183 12.4112 4.99153 12.3769 5.08716 12.3613C5.1828 12.3457 5.27298 12.3379 5.35813 12.3379C5.44305 12.3379 5.54394 12.3432 5.66101 12.3536C5.77779 12.364 5.85223 12.3691 5.88414 12.3691C6.7979 12.3691 7.51512 12.1154 8.03587 11.6076C8.55637 11.0999 8.81691 10.3958 8.81691 9.49537C8.81691 8.8777 8.6122 8.43015 8.20321 8.15257V8.15276ZM6.88832 10.0766C6.83502 10.4431 6.69705 10.6837 6.47392 10.7989C6.25074 10.9143 5.93198 10.9716 5.51764 10.9716L4.99163 10.9873L5.26265 9.30701C5.28379 9.19196 5.35282 9.13436 5.4698 9.13436H5.77272C6.19754 9.13436 6.50588 9.19469 6.69715 9.31489C6.88832 9.43537 6.95209 9.68938 6.88832 10.0766Z" fill="#003087"/>
<path d="M35.1154 7.73669H33.936C33.8189 7.73669 33.7499 7.7943 33.7288 7.90945L32.6927 14.4422L32.6768 14.4736C32.6768 14.5262 32.698 14.5757 32.7406 14.6229C32.7829 14.6699 32.8363 14.6935 32.9 14.6935H33.952C34.1536 14.6935 34.2653 14.5942 34.2868 14.3952L35.3228 7.97228V7.95668C35.3227 7.81013 35.2534 7.73684 35.1154 7.73684V7.73669Z" fill="#009CDE"/>
<path d="M20.8663 10.2653C20.8663 10.213 20.845 10.1632 20.8027 10.1162C20.7601 10.0691 20.7122 10.0454 20.6592 10.0454H19.432C19.3149 10.0454 19.2193 10.098 19.145 10.2024L17.4555 12.6523L16.7543 10.2967C16.7009 10.1293 16.5841 10.0454 16.4036 10.0454H15.2081C15.1548 10.0454 15.107 10.069 15.0647 10.1162C15.0221 10.1632 15.001 10.2131 15.001 10.2653C15.001 10.2864 15.1046 10.5951 15.3117 11.1918C15.5189 11.7886 15.7421 12.4325 15.9812 13.1235C16.2203 13.8144 16.345 14.181 16.3557 14.2226C15.4844 15.3952 15.0488 16.0235 15.0488 16.1071C15.0488 16.2433 15.1179 16.3113 15.256 16.3113H16.4833C16.6001 16.3113 16.6957 16.2591 16.7702 16.1543L20.8346 10.3751C20.8557 10.3543 20.8663 10.3178 20.8663 10.2652V10.2653Z" fill="#003087"/>
<path d="M32.2946 10.0454H31.0832C30.9344 10.0454 30.8443 10.2181 30.8124 10.5636C30.5358 10.1451 30.0314 9.93542 29.2981 9.93542C28.533 9.93542 27.8821 10.2181 27.3456 10.7835C26.809 11.3489 26.5408 12.0138 26.5408 12.7779C26.5408 13.3957 26.724 13.8877 27.0906 14.254C27.4571 14.6207 27.9485 14.8037 28.5651 14.8037C28.8731 14.8037 29.1865 14.7408 29.5053 14.6152C29.8241 14.4896 30.0736 14.3222 30.2545 14.1127C30.2545 14.1232 30.2437 14.1702 30.2227 14.2539C30.2013 14.3378 30.1908 14.4008 30.1908 14.4424C30.1908 14.6101 30.2597 14.6936 30.398 14.6936H31.4979C31.6995 14.6936 31.8165 14.5944 31.8483 14.3952L32.5019 10.2966C32.5123 10.2337 32.4965 10.1762 32.4541 10.1238C32.4114 10.0716 32.3584 10.0454 32.2946 10.0454ZM30.2146 13.1391C29.9437 13.4008 29.6169 13.5317 29.2344 13.5317C28.9262 13.5317 28.6767 13.4481 28.4853 13.2804C28.2939 13.1133 28.1983 12.8829 28.1983 12.5894C28.1983 12.2024 28.3312 11.875 28.5969 11.608C28.8622 11.3411 29.1919 11.2076 29.5851 11.2076C29.8823 11.2076 30.1294 11.294 30.3262 11.4666C30.5226 11.6394 30.6211 11.8776 30.6211 12.1812C30.6211 12.5581 30.4856 12.8775 30.2146 13.1391Z" fill="#009CDE"/>
<path d="M14.1881 10.0454H12.9768C12.8278 10.0454 12.7377 10.2181 12.7058 10.5636C12.4189 10.1451 11.9141 9.93542 11.1916 9.93542C10.4265 9.93542 9.77561 10.2181 9.23907 10.7835C8.7024 11.3489 8.4342 12.0138 8.4342 12.7779C8.4342 13.3957 8.61753 13.8877 8.98413 14.254C9.35074 14.6207 9.84206 14.8037 10.4584 14.8037C10.7558 14.8037 11.0641 14.7408 11.3829 14.6152C11.7016 14.4896 11.9567 14.3222 12.1479 14.1127C12.1053 14.2383 12.0842 14.3483 12.0842 14.4424C12.0842 14.6101 12.1532 14.6936 12.2914 14.6936H13.3911C13.5929 14.6936 13.7099 14.5944 13.7418 14.3952L14.3952 10.2966C14.4057 10.2337 14.3898 10.1762 14.3474 10.1238C14.3049 10.0716 14.2519 10.0454 14.1881 10.0454ZM12.1081 13.1469C11.8371 13.4037 11.5049 13.5317 11.112 13.5317C10.8037 13.5317 10.5566 13.4481 10.3708 13.2804C10.1847 13.1133 10.0918 12.8829 10.0918 12.5894C10.0918 12.2024 10.2246 11.875 10.4903 11.608C10.7558 11.3411 11.0852 11.2076 11.4785 11.2076C11.7759 11.2076 12.023 11.294 12.2197 11.4667C12.4162 11.6394 12.5146 11.8777 12.5146 12.1813C12.5146 12.5686 12.3791 12.8906 12.1081 13.1469Z" fill="#003087"/>
<path d="M26.3097 8.15276C25.9006 7.87561 25.3667 7.73669 24.7079 7.73669H22.1736C21.961 7.73669 21.844 7.8362 21.823 8.03497L20.7869 14.442C20.7762 14.505 20.7921 14.5625 20.8347 14.6149C20.8769 14.6673 20.9303 14.6933 20.9941 14.6933H22.301C22.4285 14.6933 22.5135 14.6254 22.556 14.4892L22.843 12.6677C22.8535 12.584 22.8907 12.5159 22.9546 12.4635C23.0183 12.4112 23.0979 12.3769 23.1937 12.3613C23.2892 12.3457 23.3794 12.3379 23.4646 12.3379C23.5495 12.3379 23.6504 12.3432 23.7674 12.3536C23.8842 12.364 23.9589 12.3691 23.9905 12.3691C24.9044 12.3691 25.6215 12.1154 26.1423 11.6076C26.663 11.0999 26.9233 10.3958 26.9233 9.49537C26.9234 8.87775 26.7187 8.4302 26.3097 8.15261V8.15276ZM24.676 10.7361C24.4422 10.8931 24.0915 10.9716 23.6241 10.9716L23.114 10.9873L23.385 9.30701C23.406 9.19196 23.4751 9.13436 23.5921 9.13436H23.8789C24.1127 9.13436 24.2986 9.14482 24.4369 9.1657C24.5749 9.18682 24.7079 9.25205 24.8354 9.36197C24.963 9.47194 25.0267 9.63164 25.0267 9.84101C25.0267 10.2807 24.9097 10.579 24.676 10.7361Z" fill="#009CDE"/>
</g>
<defs>
<clipPath id="clip0_41_1972">
<rect width="38" height="24" fill="white"/>
</clipPath>
</defs>
</svg>
